<?xml version="1.0" standalone="no"?>
<!DOCTYPE svg PUBLIC "-//W3C//DTD SVG 20010904//EN"
 "http://www.w3.org/TR/2001/REC-SVG-20010904/DTD/svg10.dtd">
<svg version="1.0" xmlns="http://www.w3.org/2000/svg"
 width="300.000000pt" height="300.000000pt" viewBox="0 0 300.000000 300.000000"
 preserveAspectRatio="xMidYMid meet">
<metadata>
Created by potrace 1.11, written by Peter Selinger 2001-2013
</metadata>
<g transform="translate(0.000000,300.000000) scale(0.100000,-0.100000)"
fill="#000000" stroke="none">
<path d="M1305 2029 c-16 -10 -37 -22 -45 -25 -57 -24 -80 -36 -80 -44 0 -6
-11 -10 -25 -10 -14 0 -25 -4 -25 -10 0 -15 47 -12 53 3 3 9 7 9 17 0 18 -16
0 -32 -75 -68 -33 -16 -68 -35 -77 -43 -18 -15 -59 -13 -65 4 -2 6 11 17 29
24 84 33 118 52 113 60 -8 13 -251 11 -330 -2 -33 -5 -87 -12 -120 -14 -33 -3
-64 -10 -69 -15 -6 -5 -30 -9 -54 -9 -25 0 -50 -6 -59 -15 -8 -8 -19 -13 -24
-10 -5 4 -22 -2 -39 -12 -29 -17 -30 -20 -30 -90 0 -42 4 -73 10 -73 6 0 10
-20 10 -44 0 -25 5 -48 10 -51 6 -3 10 -17 10 -29 0 -13 7 -29 15 -36 8 -7 15
-18 15 -25 0 -25 62 -122 87 -138 7 -4 13 -16 14 -25 1 -27 175 -172 206 -172
7 0 13 -4 13 -10 0 -5 8 -10 19 -10 10 0 24 -7 31 -15 7 -8 21 -15 31 -15 10
0 21 -4 24 -10 3 -5 22 -10 41 -10 19 0 49 -7 66 -16 25 -13 56 -15 159 -12
85 2 132 7 141 16 6 6 27 12 45 12 18 0 33 5 33 10 0 6 8 10 19 10 18 0 101
40 131 63 8 7 25 17 37 24 19 11 22 9 27 -13 4 -13 11 -24 16 -24 6 0 10 -11
10 -25 0 -14 4 -25 9 -25 5 0 11 -10 13 -22 4 -27 30 -35 49 -16 8 8 36 29 63
47 l49 34 -24 18 c-13 10 -34 19 -45 19 -12 0 -27 7 -34 15 -7 8 -21 15 -32
15 -29 0 -32 25 -6 53 49 53 88 99 88 104 0 4 11 21 25 39 14 18 25 37 25 42
0 14 30 71 41 77 5 4 9 21 9 40 0 19 5 37 10 40 6 3 10 19 10 35 0 16 4 31 8
34 12 7 32 -86 32 -151 0 -35 5 -62 14 -72 10 -11 15 -43 17 -101 1 -47 5 -90
10 -95 4 -6 9 -42 11 -80 3 -81 16 -91 61 -49 23 21 31 23 42 14 8 -7 15 -25
15 -40 0 -15 7 -33 15 -40 8 -7 15 -25 15 -41 0 -34 27 -51 61 -40 56 18 89
34 89 42 0 5 11 9 24 9 14 0 46 11 72 25 26 14 53 25 60 25 8 0 14 5 14 10 0
6 10 10 23 10 12 0 31 7 41 15 11 8 28 15 38 15 10 0 18 5 18 10 0 6 11 10 24
10 13 0 27 7 30 16 4 10 12 14 22 10 9 -3 28 0 42 8 15 7 38 18 52 24 92 40
120 53 125 62 9 15 -14 40 -36 40 -11 0 -19 5 -19 10 0 6 -9 10 -19 10 -10 0
-21 7 -25 15 -3 8 -15 15 -26 15 -11 0 -20 5 -20 10 0 6 -9 10 -19 10 -11 0
-23 5 -26 10 -3 6 -15 10 -26 10 -11 0 -22 6 -25 14 -3 7 -31 26 -62 42 -31
16 -58 32 -60 36 -2 4 -12 8 -22 8 -9 0 -23 7 -30 15 -7 8 -21 15 -31 15 -11
0 -19 5 -19 10 0 6 -8 10 -19 10 -10 0 -24 7 -31 15 -7 8 -19 15 -26 15 -8 0
-14 5 -14 10 0 6 -9 10 -20 10 -12 0 -33 11 -48 25 -15 14 -35 25 -44 25 -10
0 -18 5 -18 10 0 6 -9 10 -19 10 -11 0 -22 4 -26 9 -6 11 -64 41 -78 41 -5 0
-16 8 -23 18 -10 14 -15 15 -26 4 -11 -11 -9 -16 12 -32 14 -11 30 -20 37 -20
15 0 82 -36 104 -56 8 -8 19 -14 22 -14 4 0 55 -30 113 -66 77 -48 102 -70 94
-78 -7 -7 -16 -7 -30 2 -29 18 -43 15 -73 -16 -34 -35 -33 -41 3 -72 34 -28
37 -35 14 -44 -11 -4 -27 4 -45 24 -16 16 -33 30 -37 30 -17 0 -62 -57 -62
-78 0 -12 11 -40 25 -62 24 -39 33 -80 17 -80 -12 0 -52 57 -52 73 0 20 -35
48 -52 42 -10 -4 -18 6 -27 37 -7 24 -17 52 -21 63 -4 11 -15 38 -23 60 -9 22
-27 74 -42 115 -15 41 -30 84 -34 95 -17 41 -31 92 -31 107 0 9 -18 31 -40 48
-22 17 -40 29 -40 25 0 -4 -11 0 -25 9 -13 9 -44 16 -69 16 -25 0 -48 5 -51
10 -3 6 -37 10 -75 10 -38 0 -72 5 -75 10 -3 6 -15 10 -25 10 -11 0 -27 12
-37 28 -10 15 -24 33 -31 41 -8 8 -18 25 -23 38 -11 29 -60 30 -104 2z m-25
-144 c-1 -11 -27 -26 -85 -51 -22 -9 -49 -20 -60 -25 -37 -17 -69 -15 -73 4
-2 12 3 17 17 17 11 0 23 5 26 10 3 6 14 10 23 11 9 0 37 11 62 24 45 23 91
29 90 10z m-553 -31 c32 -6 80 -51 100 -92 22 -45 22 -136 0 -177 -44 -85
-164 -130 -243 -90 -66 33 -114 93 -114 141 0 30 16 31 24 2 3 -13 23 -35 43
-50 90 -68 213 -4 213 111 0 79 -60 131 -149 131 -64 0 -59 14 9 27 42 8 65 8
117 -3z m266 -244 c-1 -36 -7 -66 -12 -68 -6 -2 -11 -10 -11 -17 0 -58 -191
-167 -239 -136 -24 15 3 38 55 45 54 7 108 43 147 98 22 31 27 49 27 94 0 48
3 55 18 52 14 -3 17 -14 15 -68z m3 -159 c5 -5 27 -11 49 -13 32 -2 40 -7 40
-23 0 -17 -6 -20 -40 -19 -53 1 -82 11 -89 30 -11 29 17 46 40 25z m44 -82 c0
-11 -27 -12 -34 0 -3 4 -3 11 0 14 8 8 34 -3 34 -14z"/>
<path d="M1940 1771 c0 -6 5 -13 10 -16 6 -3 10 1 10 9 0 9 -4 16 -10 16 -5 0
-10 -4 -10 -9z"/>
<path d="M0 215 l0 -215 1500 0 1500 0 0 215 0 215 -1500 0 -1500 0 0 -215z"/>
</g>
</svg>
