<?xml version="1.0" encoding="UTF-8" standalone="no"?>
<!-- Created with Inkscape (http://www.inkscape.org/) -->

<svg
   xmlns:dc="http://purl.org/dc/elements/1.1/"
   xmlns:cc="http://creativecommons.org/ns#"
   xmlns:rdf="http://www.w3.org/1999/02/22-rdf-syntax-ns#"
   xmlns:svg="http://www.w3.org/2000/svg"
   xmlns="http://www.w3.org/2000/svg"
   xmlns:xlink="http://www.w3.org/1999/xlink"
   xmlns:sodipodi="http://sodipodi.sourceforge.net/DTD/sodipodi-0.dtd"
   xmlns:inkscape="http://www.inkscape.org/namespaces/inkscape"
   width="210mm"
   height="297mm"
   viewBox="0 0 210 297"
   version="1.1"
   id="svg8"
   inkscape:version="0.92.1 r15371"
   sodipodi:docname="20060917majesty125.svg">
  <defs
     id="defs2" />
  <sodipodi:namedview
     id="base"
     pagecolor="#ffffff"
     bordercolor="#666666"
     borderopacity="1.0"
     inkscape:pageopacity="0.0"
     inkscape:pageshadow="2"
     inkscape:zoom="0.98994949"
     inkscape:cx="421.61503"
     inkscape:cy="518.32438"
     inkscape:document-units="mm"
     inkscape:current-layer="svg8"
     showgrid="false"
     inkscape:window-width="1366"
     inkscape:window-height="704"
     inkscape:window-x="0"
     inkscape:window-y="27"
     inkscape:window-maximized="1" />
  <metadata
     id="metadata5">
    <rdf:RDF>
      <cc:Work
         rdf:about="">
        <dc:format>image/svg+xml</dc:format>
        <dc:type
           rdf:resource="http://purl.org/dc/dcmitype/StillImage" />
        <dc:title />
      </cc:Work>
    </rdf:RDF>
  </metadata>
  <g
     inkscape:label="Layer 1"
     inkscape:groupmode="layer"
     id="layer1"
     style="display:inline">
    <image
       sodipodi:absref="/home/take/git/e.g.Kingyo/work/20060917majesty125.jpg"
       xlink:href="20060917majesty125.jpg"
       y="93.164993"
       x="21.529524"
       id="image72"
       preserveAspectRatio="none"
       height="121.92"
       width="162.56001" />
    <path
       style="fill:none;stroke:#000000;stroke-width:0.26458332px;stroke-linecap:butt;stroke-linejoin:miter;stroke-opacity:1"
       d="m 149.27003,132.4956 c 0,0 -14.43255,3.47451 -15.368,7.08265 -0.93544,3.60813 4.94449,8.68626 11.35896,13.22984 6.41447,4.54358 9.35443,4.94448 9.75534,8.41899 0.4009,3.4745 -4.00905,9.2208 -9.88898,14.03165 -5.87993,4.81085 -7.88445,6.81537 -10.82442,7.48354 -2.93996,0.66818 -47.173065,-8.41898 -47.173065,-8.41898 0,0 -2.672696,2.13815 -5.479026,1.33634 -2.80633,-0.80181 -13.096205,-6.01356 -13.096205,-6.01356 0,0 0.267268,2.53906 2.939965,4.14268 2.672694,1.60361 34.745041,13.36347 35.413211,13.36347 0.66817,0 32.33961,1.87089 33.94323,0.93544 1.60362,-0.93544 0.80181,-2.27178 2.27179,-3.74177 1.46998,-1.46998 21.78247,-21.78247 22.04974,-22.317 0.26727,-0.53454 -4.94449,-6.94901 -4.94449,-6.94901 l 7.48355,1.46998 c 0,0 0,-1.73725 -0.13364,-2.93996 -0.13363,-1.20272 -13.22984,-19.10977 -18.30796,-21.1143 z"
       id="path4554"
       inkscape:connector-curvature="0" />
  </g>
  <g
     inkscape:groupmode="layer"
     id="layer2"
     inkscape:label="Layer 2"
     style="display:inline">
    <path
       style="display:inline;fill:none;stroke:#000000;stroke-width:0.26458332px;stroke-linecap:butt;stroke-linejoin:miter;stroke-opacity:1"
       d="m 149.03397,132.5768 c 0,0 -14.43255,3.47451 -15.368,7.08265 -0.93544,3.60813 4.94449,8.68626 11.35896,13.22984 6.41447,4.54358 9.35443,4.94448 9.75534,8.41899 0.4009,3.4745 -4.00905,9.2208 -9.88898,14.03165 -5.87993,4.81085 -7.88445,6.81537 -10.82442,7.48354 -2.93996,0.66818 -47.173044,-8.41898 -47.173044,-8.41898 0,0 -2.672696,2.13815 -5.479026,1.33634 -2.80633,-0.80181 -13.096205,-6.01356 -13.096205,-6.01356 0,0 0.267268,2.53906 2.939965,4.14268 2.672694,1.60361 34.74502,13.36347 35.41319,13.36347 0.66817,0 32.33961,1.87089 33.94323,0.93544 1.60362,-0.93544 0.80181,-2.27178 2.27179,-3.74177 1.46998,-1.46998 21.78247,-21.78247 22.04974,-22.317 0.26727,-0.53454 -4.94449,-6.94901 -4.94449,-6.94901 l 7.48355,1.46998 c 0,0 0,-1.73725 -0.13364,-2.93996 -0.13363,-1.20272 -13.22984,-19.10977 -18.30796,-21.1143 z"
       id="path4554-3"
       inkscape:connector-curvature="0" />
  </g>
</svg>
