<?xml version="1.0" encoding="UTF-8" standalone="no"?>
<!-- Created with Inkscape (http://www.inkscape.org/) -->

<svg
   xmlns:dc="http://purl.org/dc/elements/1.1/"
   xmlns:cc="http://creativecommons.org/ns#"
   xmlns:rdf="http://www.w3.org/1999/02/22-rdf-syntax-ns#"
   xmlns:svg="http://www.w3.org/2000/svg"
   xmlns="http://www.w3.org/2000/svg"
   xmlns:sodipodi="http://sodipodi.sourceforge.net/DTD/sodipodi-0.dtd"
   xmlns:inkscape="http://www.inkscape.org/namespaces/inkscape"
   width="210mm"
   height="297mm"
   viewBox="0 0 210 297"
   version="1.1"
   id="svg4579"
   sodipodi:docname="komajeStroke.svg"
   inkscape:version="0.92.1 r15371">
  <defs
     id="defs4573" />
  <sodipodi:namedview
     id="base"
     pagecolor="#ffffff"
     bordercolor="#666666"
     borderopacity="1.0"
     inkscape:pageopacity="0.0"
     inkscape:pageshadow="2"
     inkscape:zoom="1.3972656"
     inkscape:cx="404.98157"
     inkscape:cy="578.30362"
     inkscape:document-units="mm"
     inkscape:current-layer="layer1"
     showgrid="false"
     inkscape:snap-global="false"
     inkscape:window-width="1366"
     inkscape:window-height="704"
     inkscape:window-x="0"
     inkscape:window-y="27"
     inkscape:window-maximized="1" />
  <metadata
     id="metadata4576">
    <rdf:RDF>
      <cc:Work
         rdf:about="">
        <dc:format>image/svg+xml</dc:format>
        <dc:type
           rdf:resource="http://purl.org/dc/dcmitype/StillImage" />
        <dc:title></dc:title>
      </cc:Work>
    </rdf:RDF>
  </metadata>
  <g
     inkscape:label="Layer 1"
     inkscape:groupmode="layer"
     id="layer1"
     style="display:inline">
    <path
       style="fill:none;stroke:#000000;stroke-width:1;stroke-linecap:round;stroke-linejoin:round;stroke-miterlimit:4;stroke-dasharray:none;stroke-opacity:1"
       d="m 95.627975,127.85565 c 0,0 -0.661459,2.92932 -1.6064,3.87426 -0.94494,0.94494 -2.834819,1.5119 -5.19717,1.41741 -2.362354,-0.0945 -5.858632,-3.59077 -6.898066,-6.52009 -1.039434,-2.92932 -0.850448,-9.82738 1.228421,-13.04018 2.078871,-3.2128 5.575149,-6.42559 11.62277,-6.99256 6.04762,-0.56696 10.96131,4.15774 12.94568,6.80357 1.98438,2.64584 1.98438,6.61459 1.7009,8.78795"
       id="path5193"
       inkscape:connector-curvature="0" />
    <path
       style="fill:none;stroke:#000000;stroke-width:1;stroke-linecap:round;stroke-linejoin:round;stroke-miterlimit:4;stroke-dasharray:none;stroke-opacity:1"
       d="m 92.87616,112.1163 -3.608139,3.54132 c 0,0 -3.875408,-1.00226 -4.142676,-0.53453 -0.267272,0.46772 1.670433,4.27631 1.670433,4.27631 0,0 -2.939965,3.67495 -2.605878,4.40994 0.334086,0.73499 4.476765,0.46773 4.476765,0.46773 l 3.541321,2.27179 0.534538,-4.67722 c 0,0 4.276312,-2.33861 4.142679,-3.67496 0.06682,-0.66817 -3.741774,-1.40316 -3.741774,-1.40316 z"
       id="path5195"
       inkscape:connector-curvature="0"
       sodipodi:nodetypes="ccccccccccc" />
    <path
       style="fill:none;stroke:#000000;stroke-width:1;stroke-linecap:round;stroke-linejoin:round;stroke-miterlimit:4;stroke-dasharray:none;stroke-opacity:1"
       d="m 123.69271,141.84077 -1.79539,-0.85044 1.12208,3.53951"
       id="path5197"
       inkscape:connector-curvature="0"
       sodipodi:nodetypes="ccc" />
    <path
       style="fill:none;stroke:#000000;stroke-width:1;stroke-linecap:round;stroke-linejoin:round;stroke-miterlimit:4;stroke-dasharray:none;stroke-opacity:1"
       d="m 112.92137,142.98593 c -2.73951,-0.20045 -3.27405,2.40543 -3.34087,3.40769 -0.0668,1.00226 0.26728,2.60588 2.40543,2.73951 2.13816,0.13364 3.27405,-1.26953 3.54132,-2.87315 0.26727,-1.60361 -1.33634,-3.0736 -2.60588,-3.27405 z"
       id="path5199"
       inkscape:connector-curvature="0" />
    <path
       style="fill:none;stroke:#000000;stroke-width:1;stroke-linecap:round;stroke-linejoin:round;stroke-miterlimit:4;stroke-dasharray:none;stroke-opacity:1"
       d="m 91.339359,142.51821 c 2.939966,3.60814 2.80633,3.20723 4.810853,4.07586 2.00452,0.86863 4.677218,0.66817 4.677218,0.66817 0,0 0.60135,0.66818 1.73725,0.93545 1.1359,0.26727 5.47903,-0.0668 7.21628,-0.33409"
       id="path5201"
       inkscape:connector-curvature="0" />
    <path
       style="fill:none;stroke:#000000;stroke-width:1;stroke-linecap:round;stroke-linejoin:round;stroke-miterlimit:4;stroke-dasharray:none;stroke-opacity:1"
       d="m 109.5805,145.32454 c -2.00452,-1.06908 -7.61718,-0.66817 -7.61718,-0.66817 l -0.46772,-0.66818 -1.06908,0.20046 c 0,0 -1.536796,-1.80407 -2.873143,-3.14042 -1.336347,-1.33635 -2.672697,-2.60588 -2.939966,-2.6727 -0.267269,-0.0668 -1.069078,-0.33408 -1.069078,-0.33408 0,0 0.200454,-1.33635 -0.267269,-1.93771 -0.467722,-0.60135 -4.34313,-0.80181 -4.34313,-0.80181 0,0 -4.610399,1.87089 -4.744034,2.33861 -0.133633,0.46772 0,2.60588 0,2.60588 0,0 -0.935443,0.13363 -1.336347,0.86863 -0.400905,0.73499 -0.467723,3.74177 -0.534541,5.27857 -0.06682,1.5368 -0.267268,4.14268 -0.06682,4.74403 0.200451,0.60136 1.536798,2.60588 1.536798,2.60588 l -0.133633,0.60136 c 0,0 0.46772,0.86862 1.00226,1.00226 0.534538,0.13363 3.541321,-1.93771 4.142677,-2.27179 0.601358,-0.33409 2.873147,-0.80181 3.207234,-1.26953 0.334086,-0.46772 0.200453,-1.20272 0.200453,-1.80407 0,-0.60136 0.935443,-2.00452 1.069078,-2.40543 0.133634,-0.4009 -0.334086,-3.0736 -0.334086,-3.0736"
       id="path5203"
       inkscape:connector-curvature="0" />
    <path
       style="fill:none;stroke:#000000;stroke-width:1;stroke-linecap:round;stroke-linejoin:round;stroke-miterlimit:4;stroke-dasharray:none;stroke-opacity:1"
       d="m 85.593065,131.6938 c 1.135896,1.67043 2.27179,2.80632 3.274052,3.34086"
       id="path5207"
       inkscape:connector-curvature="0"
       sodipodi:nodetypes="cc" />
    <path
       style="fill:none;stroke:#000000;stroke-width:1;stroke-linecap:round;stroke-linejoin:round;stroke-miterlimit:4;stroke-dasharray:none;stroke-opacity:1"
       d="m 93.744787,136.97237 c 5.011303,0.60135 7.015823,-0.86863 8.418993,-1.87089"
       id="path5209"
       inkscape:connector-curvature="0" />
    <path
       style="fill:none;stroke:#000000;stroke-width:1;stroke-linecap:round;stroke-linejoin:round;stroke-miterlimit:4;stroke-dasharray:none;stroke-opacity:1"
       d="m 115.92816,146.46044 c 0.53453,0.13363 0.93544,0.53454 1.26953,1.00226"
       id="path5211"
       inkscape:connector-curvature="0" />
    <path
       style="fill:none;stroke:#000000;stroke-width:1;stroke-linecap:round;stroke-linejoin:round;stroke-miterlimit:4;stroke-dasharray:none;stroke-opacity:1"
       d="m 113.92363,148.73223 0.76976,0.52615"
       id="path5213"
       inkscape:connector-curvature="0"
       sodipodi:nodetypes="cc" />
    <path
       style="fill:none;stroke:#000000;stroke-width:1;stroke-linecap:round;stroke-linejoin:round;stroke-miterlimit:4;stroke-dasharray:none;stroke-opacity:1"
       d="m 91.919794,152.19117 c 0,0 3.949941,-0.46863 4.217734,-0.46863 0.267792,0 3.816043,-0.2678 4.083832,-0.1339 0.2678,0.1339 4.08384,7.2304 4.82027,8.7702 0.73643,1.53981 3.34741,6.69482 3.34741,6.69482 l 4.55247,-0.46864 c 0,0 -1.47286,1.53981 -2.41013,2.20929 -0.93728,0.66948 -2.87877,1.6737 -3.68215,1.47286 -0.80338,-0.20085 -1.60675,-0.66948 -1.6737,-1.00422 -0.0669,-0.33474 -2.87877,-5.6906 -3.14656,-6.29313 -0.2678,-0.60253 -3.280465,-6.62786 -3.280465,-6.62786 l -2.410132,0.20084 c 0,0 -2.744875,1.27201 -3.949941,1.74065 -1.205066,0.46864 -3.682148,0.66948 -5.155006,-0.33474 -1.472859,-1.00422 -2.008445,-1.53981 -2.008445,-1.53981 l 0.06695,-1.27201"
       id="path5215"
       inkscape:connector-curvature="0" />
    <path
       style="fill:none;stroke:#000000;stroke-width:1;stroke-linecap:round;stroke-linejoin:round;stroke-miterlimit:4;stroke-dasharray:none;stroke-opacity:1"
       d="m 66.747294,140.20745 c -0.762737,0.17153 -2.372595,3.08572 -2.276237,3.7491 0.06695,0.26779 1.539808,1.67371 2.410133,2.14235 0.870326,0.46863 3.347407,2.07538 3.749097,1.74064 0.401688,-0.33474 -1.004221,-3.88299 -1.338964,-4.41857 -0.33474,-0.53559 -2.008444,-3.21352 -2.544029,-3.21352 z"
       id="path5217"
       inkscape:connector-curvature="0"
       sodipodi:nodetypes="cccccc" />
    <path
       style="fill:none;stroke:#000000;stroke-width:1;stroke-linecap:round;stroke-linejoin:round;stroke-miterlimit:4;stroke-dasharray:none;stroke-opacity:1"
       d="m 70.764182,146.96922 c 0,0 8.770207,0.80337 9.171895,1.07117 0.40169,0.26779 1.874549,6.82871 2.209289,7.02955 0.334741,0.20085 1.874549,0 1.874549,0"
       id="path5219"
       inkscape:connector-curvature="0" />
    <path
       style="fill:none;stroke:#000000;stroke-width:1;stroke-linecap:round;stroke-linejoin:round;stroke-miterlimit:4;stroke-dasharray:none;stroke-opacity:1"
       d="m 98.480712,156.5428 c 0,0 -0.33474,2.87877 -0.33474,3.54825 0,0.66948 0.267793,2.14234 0.267793,2.14234 l 4.954165,3.54825"
       id="path5221"
       inkscape:connector-curvature="0" />
    <path
       style="fill:none;stroke:#000000;stroke-width:1;stroke-linecap:round;stroke-linejoin:round;stroke-miterlimit:4;stroke-dasharray:none;stroke-opacity:1"
       d="m 107.71956,165.04521 c 4.08383,-2.94571 8.70325,-7.69903 10.10917,-9.30579"
       id="path5223"
       inkscape:connector-curvature="0" />
    <path
       style="fill:none;stroke:#000000;stroke-width:1;stroke-linecap:round;stroke-linejoin:round;stroke-miterlimit:4;stroke-dasharray:none;stroke-opacity:1"
       d="m 81.275041,170.8697 c -1.205066,-2.00844 -17.540412,-6.56091 -18.745478,-5.89143 -1.205068,0.66948 -2.410134,5.48974 -1.740654,6.9626 0.669483,1.47286 16.737036,5.48975 17.808207,5.22196 1.071168,-0.26779 3.481303,-4.82027 2.677925,-6.29313 z"
       id="path5225"
       inkscape:connector-curvature="0" />
    <path
       style="fill:none;stroke:#000000;stroke-width:1;stroke-linecap:round;stroke-linejoin:round;stroke-miterlimit:4;stroke-dasharray:none;stroke-opacity:1"
       d="m 69.873076,161.98779 c -2.651011,0.94679 -3.219085,1.98826 -3.787158,3.21909"
       id="path5227"
       inkscape:connector-curvature="0" />
    <path
       style="fill:none;stroke:#000000;stroke-width:1;stroke-linecap:round;stroke-linejoin:round;stroke-miterlimit:4;stroke-dasharray:none;stroke-opacity:1"
       d="m 91.743918,174.39074 -6.722205,0.0947 c 0,0 -1.798902,3.40845 -5.775418,5.30203 -3.976518,1.89357 -8.899824,0.47339 -10.88808,-1.04147 -1.988259,-1.51487 -2.366976,-2.84037 -2.461654,-4.26056"
       id="path5229"
       inkscape:connector-curvature="0" />
    <path
       style="fill:none;stroke:#000000;stroke-width:1;stroke-linecap:round;stroke-linejoin:round;stroke-miterlimit:4;stroke-dasharray:none;stroke-opacity:1"
       d="m 134.83355,156.6767 c 0,0 -7.63208,-2.14234 -8.03378,-1.67371 -0.40168,0.46864 -0.53558,0.87033 -0.26779,1.67371 0.93727,1.33896 1.9415,2.47708 4.55248,4.15078"
       id="path5231"
       inkscape:connector-curvature="0"
       sodipodi:nodetypes="cccc" />
    <path
       style="fill:none;stroke:#000000;stroke-width:1;stroke-linecap:round;stroke-linejoin:round;stroke-miterlimit:4;stroke-dasharray:none;stroke-opacity:1"
       d="m 123.45237,167.85704 c 0,0 2.00844,5.02111 2.34318,5.08805 0.33474,0.067 2.20929,-0.46863 2.47708,-1.13811 0.2678,-0.66948 -2.41013,-6.09228 -2.41013,-6.09228"
       id="path5233"
       inkscape:connector-curvature="0" />
    <path
       style="fill:none;stroke:#000000;stroke-width:1;stroke-linecap:round;stroke-linejoin:round;stroke-miterlimit:4;stroke-dasharray:none;stroke-opacity:1"
       d="m 127.00062,167.18756 8.83715,-0.4017 c 0,0 -2.54402,-4.28468 -5.35585,-5.22195"
       id="path5235"
       inkscape:connector-curvature="0" />
    <path
       style="fill:none;stroke:#000000;stroke-width:1;stroke-linecap:round;stroke-linejoin:round;stroke-miterlimit:4;stroke-dasharray:none;stroke-opacity:1"
       d="m 124.12185,169.99938 c 0,0 -1.13812,-0.53559 -1.53981,-0.33475 -0.40169,0.20085 -1.60675,2.47709 -1.47286,2.87877 0.1339,0.40169 1.74065,0.93728 2.27624,0.73643 0.53559,-0.20084 1.13812,-2.20928 0.73643,-3.28045 z"
       id="path5237"
       inkscape:connector-curvature="0" />
    <path
       style="fill:none;stroke:#000000;stroke-width:1;stroke-linecap:round;stroke-linejoin:round;stroke-miterlimit:4;stroke-dasharray:none;stroke-opacity:1"
       d="m 133.76238,167.18756 c 4.01689,5.48974 0,10.31001 -3.88299,11.71592 -3.88299,1.40591 -10.04222,0 -12.31846,-2.61098 -0.40168,-0.66948 -1.5398,-1.60675 -0.73643,-4.08384"
       id="path5239"
       inkscape:connector-curvature="0"
       sodipodi:nodetypes="cscc" />
    <path
       style="fill:none;stroke:#000000;stroke-width:1;stroke-linecap:round;stroke-linejoin:round;stroke-miterlimit:4;stroke-dasharray:none;stroke-opacity:1"
       d="m 123.00334,173.55911 c 1.33757,0.8737 2.95384,0.95352 4.33202,-0.61402"
       id="path5241"
       inkscape:connector-curvature="0"
       sodipodi:nodetypes="cc" />
    <path
       style="fill:none;stroke:#000000;stroke-width:1;stroke-linecap:round;stroke-linejoin:round;stroke-miterlimit:4;stroke-dasharray:none;stroke-opacity:1"
       d="m 120.24229,170.22486 c -0.28404,2.55633 1.04146,5.49138 5.44404,5.6334 4.40257,0.14202 5.3967,-3.26643 5.3967,-3.97652 0,-0.71009 -0.37872,-3.21909 -2.93505,-4.63927"
       id="path5243"
       inkscape:connector-curvature="0"
       sodipodi:nodetypes="cssc" />
  </g>
  <g
     inkscape:groupmode="layer"
     id="layer2"
     inkscape:label="Layer 2"
     style="display:inline">
    <path
       style="fill:none;stroke:#000000;stroke-width:1;stroke-linecap:round;stroke-linejoin:round;stroke-miterlimit:4;stroke-dasharray:none;stroke-opacity:1"
       d="m 117.19769,128.75383 c 12.02713,9.6217 18.8425,25.79151 18.70886,26.72695 -0.13363,0.93545 -10.42351,10.55715 -11.22532,11.22532 -0.8018,0.66818 -10.0226,6.68174 -10.42351,7.34991 -0.4009,0.66818 0.13364,2.53906 -0.26727,2.93997 -0.4009,0.4009 -19.10977,-1.46998 -20.045212,-1.46998 -0.935442,0 -11.075472,-7.2392 -11.075472,-7.2392 l 0.81802,-0.85717 c 0,0 5.847504,1.28099 6.248409,1.28099 0.400904,0 3.073601,-1.46998 4.276312,-1.60361 1.202714,-0.13364 15.234363,6.28083 15.234363,6.28083 0,0 4.54358,-3.20723 7.21628,-5.61266 2.67269,-2.40542 6.01356,-7.61718 6.01356,-7.61718 0,0 -3.60814,-3.60814 -4.81085,-4.54358 -1.20271,-0.93545 -4.1245,-3.90399 -4.00878,-5.07707 0.11571,-1.17308 2.80607,-2.40648 4.81059,-3.74283 2.27231,-1.20244 6.1472,-2.53906 6.1472,-2.53906 0,0 -2.00452,-5.74629 -3.0736,-7.75081 -1.06908,-2.00452 -4.54358,-7.75082 -4.54358,-7.75082 z"
       id="path5187"
       inkscape:connector-curvature="0"
       sodipodi:nodetypes="ccccssccsccscczccsc" />
    <path
       style="fill:none;stroke:#000000;stroke-width:1;stroke-linecap:round;stroke-linejoin:round;stroke-miterlimit:4;stroke-dasharray:none;stroke-opacity:1"
       d="m 92.887648,164.42485 c 0,0 -0.472472,0.18899 -1.039434,0.47247 -0.566965,0.28348 -5.669643,-0.0945 -5.669643,-0.0945 0,0 -3.49628,2.55133 -4.063245,2.74032 -0.566963,0.18899 -18.331844,-8.50446 -18.331844,-8.50446 v -0.85045 c 0,0 0.944941,-0.56696 1.41741,-0.94494 0.472471,-0.37797 1.606399,-1.41741 1.606399,-1.41741 0,0 -0.472469,-1.98437 -0.661458,-3.59077 -0.18899,-1.6064 0.188989,-5.00819 0.188989,-5.00819 l 10.583333,4.15774 c 0,0 1.039434,0.28348 1.889879,1.6064 0.850448,1.32292 0.283482,3.87426 0.850448,4.63021 0.566965,0.75595 13.229166,6.80357 13.229166,6.80357 z"
       id="path5189"
       inkscape:connector-curvature="0" />
    <path
       style="fill:none;stroke:#000000;stroke-width:1;stroke-linecap:round;stroke-linejoin:round;stroke-miterlimit:4;stroke-dasharray:none;stroke-opacity:1"
       d="m 110.24868,122.33936 c 0,0 -0.2902,5.52489 -1.33635,8.41899 -0.66817,2.13816 -3.34087,7.75082 -3.34087,7.75082 0,0 -3.74177,-4.40995 -5.746292,-6.28084 -2.004523,-1.87088 -4.794639,-5.14968 -4.794639,-5.14968 0,0 0.65196,-1.93296 1.45377,-2.8684 0.801809,-0.93544 1.737251,-2.53906 3.073598,-2.93997 1.336353,-0.4009 10.690783,1.06908 10.690783,1.06908 z"
       id="path5191"
       inkscape:connector-curvature="0"
       sodipodi:nodetypes="cccccscc" />
  </g>
</svg>
